<svg width="91" height="112" viewBox="0 0 91 112" fill="none" xmlns="http://www.w3.org/2000/svg">
<path d="M3.49418 102.985L0.00405647 10.7342C-0.111209 7.68748 2.24375 5.10544 5.31123 4.91526L84.4109 0.0111335C87.5332 -0.182448 90.2226 2.17149 90.4177 5.2688C90.4251 5.38549 90.4288 5.50239 90.4288 5.61931V106.143C90.4288 109.247 87.8927 111.762 84.7643 111.762C84.6795 111.762 84.5948 111.76 84.5101 111.757L8.90054 108.388C5.95585 108.257 3.60473 105.907 3.49418 102.985Z" fill="#FF4785"/>
<mask id="mask0_1326_7858" style="mask-type:luminance" maskUnits="userSpaceOnUse" x="0" y="0" width="91" height="112">
<path d="M3.49418 102.985L0.00405647 10.7342C-0.111209 7.68748 2.24375 5.10544 5.31123 4.91526L84.4109 0.0111335C87.5332 -0.182448 90.2226 2.17149 90.4177 5.2688C90.4251 5.38549 90.4288 5.50239 90.4288 5.61931V106.143C90.4288 109.247 87.8927 111.762 84.7643 111.762C84.6795 111.762 84.5948 111.76 84.5101 111.757L8.90054 108.388C5.95585 108.257 3.60473 105.907 3.49418 102.985Z" fill="white"/>
</mask>
<g mask="url(#mask0_1326_7858)">
<path d="M66.774 13.7374L67.3143 0.846666L78.1771 0L78.6451 13.2937C78.6613 13.7564 78.2965 14.1445 77.8301 14.1607C77.6304 14.1676 77.4347 14.1041 77.2777 13.9814L73.0887 10.7079L68.1289 14.44C67.7571 14.7198 67.2271 14.6476 66.9451 14.2788C66.8263 14.1235 66.7659 13.9321 66.774 13.7374ZM52.8816 42.1247C52.8816 44.3109 67.7262 43.2631 69.719 41.7275C69.719 26.8402 61.6663 19.0172 46.9205 19.0172C32.1747 19.0172 23.9129 26.962 23.9129 38.8791C23.9129 59.6347 52.1495 60.0319 52.1495 71.3532C52.1495 74.5311 50.5808 76.418 47.1297 76.418C42.6327 76.418 40.8549 74.1398 41.064 66.3936C41.064 64.7132 23.9129 64.1893 23.39 66.3936C22.0585 85.1652 33.848 90.5797 47.3388 90.5797C60.4113 90.5797 70.6602 83.6675 70.6602 71.1546C70.6602 48.9093 42.0052 49.5052 42.0052 38.4818C42.0052 34.0129 45.3518 33.4171 47.3388 33.4171C49.4304 33.4171 53.1953 33.7828 52.8816 42.1247Z" fill="white"/>
</g>
</svg>
