<svg width="115" height="103" viewBox="0 0 115 103" fill="none" xmlns="http://www.w3.org/2000/svg">
<path d="M57.5 72.1587C87.8757 72.1587 112.5 62.7566 112.5 51.1587C112.5 39.5607 87.8757 30.1587 57.5 30.1587C27.1243 30.1587 2.5 39.5607 2.5 51.1587C2.5 62.7566 27.1243 72.1587 57.5 72.1587Z" stroke="#61DAFB" stroke-width="5"/>
<path d="M39.3125 61.6586C54.5003 87.9647 74.9549 104.589 84.999 98.79C95.0432 92.991 90.8734 66.9647 75.6855 40.6586C60.4977 14.3525 40.0432 -2.2718 29.999 3.52719C19.9549 9.32618 24.1246 35.3525 39.3125 61.6586Z" stroke="#61DAFB" stroke-width="5"/>
<path d="M39.3105 40.6584C24.1227 66.9645 19.9529 92.9908 29.9971 98.7898C40.0412 104.589 60.4958 87.9645 75.6836 61.6584C90.8714 35.3523 95.0412 9.32603 84.9971 3.52704C74.9529 -2.27195 54.4984 14.3523 39.3105 40.6584Z" stroke="#61DAFB" stroke-width="5"/>
</svg>
