<svg width="115" height="114" viewBox="0 0 115 114" fill="none" xmlns="http://www.w3.org/2000/svg">
<mask id="mask0_929_6767" style="mask-type:alpha" maskUnits="userSpaceOnUse" x="0" y="0" width="115" height="114">
<rect x="0.333984" width="114" height="114" rx="27" fill="#D9D9D9"/>
</mask>
<g mask="url(#mask0_929_6767)">
</g>
<g clip-path="url(#clip0_929_6767)">
<path fill-rule="evenodd" clip-rule="evenodd" d="M21.6978 0H92.3131C104.292 0 114 9.70783 114 21.6978V92.3131C114 104.292 104.292 114.011 92.3022 114.011H21.6978C9.70783 114 0 104.292 0 92.3021V21.6978C0 9.70783 9.70783 0 21.6978 0Z" fill="#50C800"/>
<path fill-rule="evenodd" clip-rule="evenodd" d="M114.003 73.6435V40.6682C112.712 37.5176 110.808 34.6787 108.448 32.2963C108.66 28.756 107.869 25.1713 106.032 21.9762C104.83 19.8832 101.924 19.5826 100.299 21.3861L96.6141 25.4719C96.5917 25.4607 96.5694 25.4607 96.5471 25.4496C97.0258 21.7201 96.3911 17.8682 94.5653 14.4281C93.4298 12.2906 90.9697 11.9121 89.2775 13.6488L71.576 31.5838C71.3758 31.773 71.1643 31.9734 70.9641 32.1738C70.9527 32.185 70.9303 32.1961 70.9194 32.2072C63.2267 39.1764 51.2366 39.4658 43.9112 33.0645C43.4547 32.5634 42.976 32.0847 42.475 31.6171L24.7404 13.66C23.0482 11.9232 20.5879 12.3018 19.4524 14.4393C17.6377 17.8682 16.992 21.6978 17.4596 25.4051C17.4262 25.4162 17.3928 25.4162 17.3594 25.4273L13.7189 21.3861C12.0936 19.5826 9.18789 19.8832 7.97443 21.9762C6.1709 25.1045 5.38047 28.6113 5.54746 32.0847C3.2207 34.3781 1.32812 37.1168 -0.0078125 40.156V74.1666C3.98887 83.2847 13.0955 89.6637 23.6828 89.6637H24.8183C35.3166 89.6637 44.3564 83.396 48.3976 74.4005C52.2831 74.3781 55.0994 74.3672 56.8477 74.3672C60.6325 74.3563 63.5828 74.3562 65.6982 74.3562C69.7283 83.3736 78.7904 89.6637 89.2994 89.6637H90.101C100.889 89.6637 110.129 83.0394 114.003 73.6435Z" fill="#8EE000"/>
<path fill-rule="evenodd" clip-rule="evenodd" d="M25.2855 33.8436C35.216 33.8436 43.2762 41.8927 43.2762 51.8344V62.4884C43.2762 72.4187 35.2272 80.479 25.2855 80.479C15.3551 80.479 7.29492 72.4301 7.29492 62.4884V51.8344C7.29492 41.8927 15.3551 33.8436 25.2855 33.8436Z" fill="white"/>
<path fill-rule="evenodd" clip-rule="evenodd" d="M88.4871 33.8436C98.4174 33.8436 106.478 41.8927 106.478 51.8344V62.4884C106.478 72.4187 98.4284 80.479 88.4871 80.479C78.5563 80.479 70.4961 72.4301 70.4961 62.4884V51.8344C70.4961 41.8927 78.5454 33.8436 88.4871 33.8436Z" fill="white"/>
<path fill-rule="evenodd" clip-rule="evenodd" d="M28.0584 44.175C32.7676 44.175 36.5972 47.9935 36.5972 52.714V61.8318C36.5972 66.5409 32.7787 70.3704 28.0584 70.3704C23.3492 70.3704 19.5195 66.5518 19.5195 61.8318V52.714C19.5195 47.9935 23.3492 44.175 28.0584 44.175Z" fill="#4B4B4B"/>
<path fill-rule="evenodd" clip-rule="evenodd" d="M57.0053 64.8733C62.4043 64.8733 66.7796 69.2486 66.7796 74.6476V78.0435C66.7796 83.443 62.4043 87.8178 57.0053 87.8178C51.6058 87.8178 47.2305 83.443 47.2305 78.0435V74.6476C47.2305 69.2486 51.6058 64.8733 57.0053 64.8733Z" fill="#F48000"/>
<path d="M43.5117 75.5829C44.6807 69.3489 50.4586 64.851 57.372 64.851C63.662 64.851 69.3511 69.4602 70.4975 75.5829V76.0841C70.4975 76.4739 70.3639 76.6294 70.0077 76.5852L57.3834 78.8337C57.0382 78.8337 56.9935 78.8337 56.6374 78.8337L44.0016 76.5738C43.6453 76.6185 43.5117 76.4625 43.5117 76.0731V75.5829Z" fill="#FFC200"/>
<path fill-rule="evenodd" clip-rule="evenodd" d="M54.9339 67.0106C55.591 66.8551 56.27 66.7657 56.949 66.7657C57.6726 66.7657 58.4077 66.8551 59.1314 67.0443C60.6006 67.4228 61.6248 68.7475 61.6248 70.2614C61.6248 71.4862 60.6339 72.4657 59.4205 72.4657H54.5892C53.3643 72.4657 52.3849 71.4748 52.3849 70.2614C52.3735 68.7251 53.4314 67.3781 54.9339 67.0106Z" fill="#FFE747"/>
<path fill-rule="evenodd" clip-rule="evenodd" d="M85.7144 44.175C90.424 44.175 94.2534 47.9935 94.2534 52.714V61.8318C94.2534 66.5409 90.4349 70.3704 85.7144 70.3704C81.0053 70.3704 77.1758 66.5518 77.1758 61.8318V52.714C77.1867 47.9935 81.0053 44.175 85.7144 44.175Z" fill="#4B4B4B"/>
<path d="M20.8447 54.5285C23.8882 54.5285 26.3555 52.0711 26.3555 49.0401C26.3555 46.0091 23.8882 43.5516 20.8447 43.5516C17.8012 43.5516 15.334 46.0091 15.334 49.0401C15.334 52.0711 17.8012 54.5285 20.8447 54.5285Z" fill="white"/>
<path d="M77.667 54.5285C80.7104 54.5285 83.1778 52.0711 83.1778 49.0401C83.1778 46.0091 80.7104 43.5516 77.667 43.5516C74.6232 43.5516 72.1562 46.0091 72.1562 49.0401C72.1562 52.0711 74.6232 54.5285 77.667 54.5285Z" fill="white"/>
</g>
<defs>
<clipPath id="clip0_929_6767">
<rect width="114" height="114" fill="white"/>
</clipPath>
</defs>
</svg>
